HIERARCHY
ROOT hip
{
  OFFSET 0 0 0
  CHANNELS 6 Xposition Yposition Zposition Zrotation Yrotation Xrotation
  JOINT abdomen
  {
    OFFSET 0 20.6881 -0.73152
    CHANNELS 3 Zrotation Xrotation Yrotation
    JOINT chest
    {
      OFFSET 0 11.7043 -0.48768
      CHANNELS 3 Zrotation Xrotation Yrotation
      JOINT neck
      {
        OFFSET 0 22.1894 -2.19456
        CHANNELS 3 Zrotation Xrotation Yrotation
        JOINT head
        {
          OFFSET -0.24384 7.07133 1.2192
          CHANNELS 3 Zrotation Xrotation Yrotation
          JOINT leftEye
          {
            OFFSET 4.14528 8.04674 8.04672
            CHANNELS 3 Zrotation Xrotation Yrotation
            End Site
            {
              OFFSET 1 0 0
            }
          }
          JOINT rightEye
          {
            OFFSET -3.6576 8.04674 8.04672
            CHANNELS 3 Zrotation Xrotation Yrotation
            End Site
            {
              OFFSET 1 0 0
            }
          }
        }
      }
      JOINT rCollar
      {
        OFFSET -2.68224 19.2634 -4.8768
        CHANNELS 3 Zrotation Xrotation Yrotation
        JOINT rShldr
        {
          OFFSET -8.77824 -1.95073 1.46304
          CHANNELS 3 Zrotation Xrotation Yrotation
          JOINT rForeArm
          {
            OFFSET -28.1742 -1.7115 0.48768
            CHANNELS 3 Zrotation Xrotation Yrotation
            JOINT rHand
            {
              OFFSET -22.5879 0.773209 7.07136
              CHANNELS 3 Zrotation Xrotation Yrotation
              JOINT rThumb1
              {
                OFFSET -1.2192 -0.487915 3.41376
                CHANNELS 3 Zrotation Xrotation Yrotation
                JOINT rThumb2
                {
                  OFFSET -3.37035 -0.52449 3.41376
                  CHANNELS 3 Zrotation Xrotation Yrotation
                  End Site
                  {
                    OFFSET -1.78271 -1.18214 1.43049
                  }
                }
              }
              JOINT rIndex1
              {
                OFFSET -7.75947 0.938293 5.60832
                CHANNELS 3 Zrotation Xrotation Yrotation
                JOINT rIndex2
                {
                  OFFSET -2.54057 -0.884171 1.56538
                  CHANNELS 3 Zrotation Xrotation Yrotation
                  End Site
                  {
                    OFFSET -1.62519 -0.234802 1.16502
                  }
                }
              }
              JOINT rMid1
              {
                OFFSET -8.24714 1.18213 3.41376
                CHANNELS 3 Zrotation Xrotation Yrotation
                JOINT rMid2
                {
                  OFFSET -3.10165 -0.590103 1.0647
                  CHANNELS 3 Zrotation Xrotation Yrotation
                  End Site
                  {
                    OFFSET -2.48547 -0.328903 0.83742
                  }
                }
              }
              JOINT rRing1
              {
                OFFSET -8.82822 0.546677 1.51678
                CHANNELS 3 Zrotation Xrotation Yrotation
                JOINT rRing2
                {
                  OFFSET -2.60934 -0.819778 -0.0198488
                  CHANNELS 3 Zrotation Xrotation Yrotation
                  End Site
                  {
                    OFFSET -2.33842 -0.294052 0.168128
                  }
                }
              }
              JOINT rPinky1
              {
                OFFSET -8.27202 -0.0477905 -0.4584
                CHANNELS 3 Zrotation Xrotation Yrotation
                JOINT rPinky2
                {
                  OFFSET -1.82734 -0.647385 -0.700984
                  CHANNELS 3 Zrotation Xrotation Yrotation
                  End Site
                  {
                    OFFSET -1.69225 -0.51767 -0.607171
                  }
                }
              }
            }
          }
        }
      }
      JOINT lCollar
      {
        OFFSET 2.68224 19.2634 -4.8768
        CHANNELS 3 Zrotation Xrotation Yrotation
        JOINT lShldr
        {
          OFFSET 8.77824 -1.95073 1.46304
          CHANNELS 3 Zrotation Xrotation Yrotation
          JOINT lForeArm
          {
            OFFSET 28.1742 -1.7115 0.48768
            CHANNELS 3 Zrotation Xrotation Yrotation
            JOINT lHand
            {
              OFFSET 22.5879 0.773209 7.07136
              CHANNELS 3 Zrotation Xrotation Yrotation
              JOINT lThumb1
              {
                OFFSET 1.2192 -0.487915 3.41376
                CHANNELS 3 Zrotation Xrotation Yrotation
                JOINT lThumb2
                {
                  OFFSET 3.37035 -0.52449 3.41376
                  CHANNELS 3 Zrotation Xrotation Yrotation
                  End Site
                  {
                    OFFSET 1.78271 -1.18214 1.43049
                  }
                }
              }
              JOINT lIndex1
              {
                OFFSET 7.75947 0.938293 5.60832
                CHANNELS 3 Zrotation Xrotation Yrotation
                JOINT lIndex2
                {
                  OFFSET 2.54057 -0.884171 1.56538
                  CHANNELS 3 Zrotation Xrotation Yrotation
                  End Site
                  {
                    OFFSET 1.62519 -0.234802 1.16502
                  }
                }
              }
              JOINT lMid1
              {
                OFFSET 8.24714 1.18213 3.41376
                CHANNELS 3 Zrotation Xrotation Yrotation
                JOINT lMid2
                {
                  OFFSET 3.10165 -0.590103 1.0647
                  CHANNELS 3 Zrotation Xrotation Yrotation
                  End Site
                  {
                    OFFSET 2.48547 -0.328903 0.83742
                  }
                }
              }
              JOINT lRing1
              {
                OFFSET 8.82822 0.546677 1.51678
                CHANNELS 3 Zrotation Xrotation Yrotation
                JOINT lRing2
                {
                  OFFSET 2.60934 -0.819778 -0.0198488
                  CHANNELS 3 Zrotation Xrotation Yrotation
                  End Site
                  {
                    OFFSET 2.33842 -0.294052 0.168128
                  }
                }
              }
              JOINT lPinky1
              {
                OFFSET 8.27202 -0.0477905 -0.4584
                CHANNELS 3 Zrotation Xrotation Yrotation
                JOINT lPinky2
                {
                  OFFSET 1.82734 -0.647385 -0.700984
                  CHANNELS 3 Zrotation Xrotation Yrotation
                  End Site
                  {
                    OFFSET 1.69225 -0.51767 -0.607171
                  }
                }
              }
            }
          }
        }
      }
    }
  }
  JOINT rButtock
  {
    OFFSET -8.77824 4.35084 1.2192
    CHANNELS 3 Zrotation Xrotation Yrotation
    JOINT rThigh
    {
      OFFSET 0 -1.70687 -2.19456
      CHANNELS 3 Zrotation Xrotation Yrotation
      JOINT rShin
      {
        OFFSET 0 -36.8199 0.73152
        CHANNELS 3 Zrotation Xrotation Yrotation
        JOINT rFoot
        {
          OFFSET 0.73152 -45.1104 -5.12064
          CHANNELS 3 Zrotation Xrotation Yrotation
          End Site
          {
            OFFSET -1.1221 -3.69964 12.103
          }
        }
      }
    }
  }
  JOINT lButtock
  {
    OFFSET 8.77824 4.35084 1.2192
    CHANNELS 3 Zrotation Xrotation Yrotation
    JOINT lThigh
    {
      OFFSET 0 -1.70687 -2.19456
      CHANNELS 3 Zrotation Xrotation Yrotation
      JOINT lShin
      {
        OFFSET 0 -36.8199 0.73152
        CHANNELS 3 Zrotation Xrotation Yrotation
        JOINT lFoot
        {
          OFFSET -0.73152 -45.1104 -5.12064
          CHANNELS 3 Zrotation Xrotation Yrotation
          End Site
          {
            OFFSET 1.1221 -3.69964 12.103
          }
        }
      }
    }
  }
}
MOTION
Frames:	4
Frame Time:	0.03333
0.06639505736529827 62.15048432350159 0.10510487481951714 -4.2166595458984375 1.6919655799865723 5.615832805633545 -2.2734594345092773 14.743003845214844 3.803698778152466 2.6980695724487305 -9.666319847106934 1.1055511236190796 -5.165214538574219 15.090209007263184 -3.788851261138916 9.032684326171875 -24.098501205444336 -5.393552303314209 0.05715353414416313 0.02500486932694912 0.04839484766125679 -0.06168551743030548 0.09857460856437683 -0.003388713812455535 -0.019958358258008957 -0.05095286667346954 0.018136752769351006 44.9782600402832 37.518310546875 19.316959381103516 -27.63863754272461 -28.70424461364746 65.08504486083984 -0.16541486978530884 -12.570323944091797 -1.8919541835784912 -0.07106725126504898 0.036764681339263916 -0.023010840639472008 -0.007659164723008871 -0.020085172727704048 0.059091392904520035 0.037250347435474396 -0.07634315639734268 -0.015299913473427296 7.735678672790527 5.446619033813477 0.3955479860305786 -0.044227272272109985 0.04077233746647835 0.03301631659269333 2.931809902191162 0.9138396382331848 0.07900195568799973 0.011547156609594822 0.019458405673503876 0.00950847752392292 10.35197639465332 0.7717918157577515 0.021977676078677177 -0.03842225298285484 -0.08324567973613739 0.05508321523666382 2.180236339569092 -0.7504612803459167 -0.25798434019088745 0.03841576725244522 -0.07921247184276581 -0.010630632750689983 -52.555049896240234 39.64124298095703 -29.698057174682617 26.975906372070312 -26.159767150878906 -61.20033645629883 0.21938610076904297 -13.80971622467041 1.9515684843063354 0.039400577545166016 0.09466952085494995 0.016856728121638298 -0.005755940452218056 -0.014963864348828793 0.010186651721596718 0.01003247406333685 0.005653695669025183 -0.033777810633182526 -7.732630729675293 5.465855121612549 -0.4369175136089325 0.029664216563105583 0.003859143704175949 0.0030801601242274046 -2.917358160018921 0.977833092212677 -0.07159213721752167 0.08924952149391174 -0.0291739571839571 0.022281566634774208 -10.208946228027344 0.7665144801139832 -0.008748105727136135 -0.020745426416397095 0.029669983312487602 -0.005165715701878071 -2.2548112869262695 -0.7075673937797546 0.18780073523521423 -0.009476898238062859 -0.01635253243148327 -0.06276785582304001 -24.91962242126465 -39.8701171875 -20.63206672668457 -1.5065606832504272 65.10955810546875 2.6337203979492188 -3.6842286586761475 -10.920615196228027 -9.957879066467285 0.020532339811325073 0.041555922478437424 0.017994029447436333 30.372127532958984 -40.174522399902344 23.28151512145996 1.5451768636703491 66.15367126464844 -2.6636815071105957 4.256464958190918 -10.889317512512207 13.499948501586914
0.18812487833201885 61.993420124053955 0.13742530718445778 -4.295280456542969 1.610465407371521 5.836493015289307 -2.2879483699798584 14.745367050170898 3.919633150100708 2.7554266452789307 -9.617713928222656 1.1536519527435303 -5.1713175773620605 15.154853820800781 -3.837491512298584 9.126522064208984 -24.009458541870117 -5.415075778961182 0.11770657449960709 0.037911348044872284 0.09220325201749802 -0.05291011184453964 0.08311711996793747 -0.03345879912376404 -0.07204417139291763 -0.06569532305002213 0.018114641308784485 45.08369064331055 37.5419921875 19.191497802734375 -27.600223541259766 -28.882429122924805 65.33191680908203 -0.2007303088903427 -12.825502395629883 -2.0284485816955566 -0.12786564230918884 0.08861080557107925 -0.032236479222774506 -0.01991312950849533 0.017032042145729065 0.053031329065561295 0.07051309198141098 -0.11265840381383896 -0.05978664383292198 7.737340450286865 5.456705570220947 0.37333056330680847 -0.1973537802696228 0.022054484114050865 0.10506455600261688 2.972364902496338 0.8440741300582886 0.07749484479427338 -0.018132174387574196 -0.03867301344871521 -0.0010122336680069566 10.332056045532227 0.7822825908660889 -0.019919604063034058 -0.021096698939800262 -0.12878833711147308 0.10706118494272232 2.206092596054077 -0.7580292224884033 -0.2640827000141144 0.0613776296377182 -0.1137743666768074 0.026964496821165085 -52.552833557128906 39.41249465942383 -29.76742172241211 26.98084831237793 -26.024866104125977 -61.02742385864258 0.31000205874443054 -14.038305282592773 1.9714189767837524 0.03260772302746773 0.12179704755544662 0.0774461179971695 -0.04640241339802742 -0.05010716989636421 -0.03302789479494095 -0.0033305990509688854 0.04708302021026611 -0.04151168465614319 -7.73555850982666 5.471914768218994 -0.389155775308609 0.04483000934123993 -0.0328977108001709 0.009806694462895393 -2.964561939239502 0.9922034740447998 -0.025163382291793823 0.09640736877918243 -0.1328972429037094 0.02259519323706627 -10.170689582824707 0.7441881895065308 0.022717196494340897 -0.01391082163900137 0.05096088722348213 -0.009035841561853886 -2.2688145637512207 -0.6804820895195007 0.2014959752559662 0.0266568586230278 -0.027372056618332863 -0.1190754696726799 -24.87624740600586 -39.77375030517578 -20.59398651123047 -1.666745662689209 64.92889404296875 2.701817035675049 -3.686389923095703 -10.835782051086426 -9.98281192779541 0.08626753836870193 0.038556117564439774 0.006367946974933147 30.469038009643555 -40.51042938232422 23.5535888671875 1.3999214172363281 66.34520721435547 -2.5906572341918945 4.266300201416016 -10.745464324951172 13.51884937286377
0.17750835977494717 72.39340543746948 0.29286816716194153 164.7060089111328 70.02751159667969 -179.99586486816406 1.8852732181549072 22.219711303710938 4.7637152671813965 1.2242188453674316 -10.131004333496094 0.17058414220809937 -1.0563380718231201 12.612600326538086 6.75296688079834 1.278434157371521 -26.856529235839844 12.843290328979492 -0.15665371716022491 0.23075143992900848 0.3681500256061554 0.1531607210636139 0.38243016600608826 -0.08071409165859222 -0.22296392917633057 -0.22948119044303894 0.2147955447435379 10.93216323852539 41.37698745727539 54.83298873901367 -27.4647216796875 -35.08745193481445 75.2384262084961 0.05874884873628616 -6.439043998718262 0.16771025955677032 -0.26656726002693176 0.13833452761173248 0.10496833920478821 0.09500085562467575 0.2873568832874298 0.1458655595779419 0.05331011116504669 -0.1520489603281021 0.16747024655342102 8.065865516662598 5.485275745391846 0.3958832621574402 -0.5581842064857483 -0.13908980786800385 0.2201584428548813 3.3032243251800537 1.262450098991394 0.15882065892219543 -0.007669468410313129 -0.059274908155202866 0.08060215413570404 10.130517959594727 1.1605267524719238 -0.20513693988323212 -0.058834753930568695 0.17167557775974274 0.4537884593009949 2.1558339595794678 -0.2401113063097 -0.6504887938499451 0.021353399381041527 -0.43672218918800354 -0.06820642203092575 1.321732997894287 19.399057388305664 -95.77586364746094 27.09690284729004 -41.58681869506836 -89.48435974121094 2.668076515197754 -36.59022521972656 6.89118766784668 -0.27251166105270386 0.35091325640678406 0.11878981441259384 0.07719345390796661 -0.0019289428601041436 -0.13832136988639832 -0.2351832240819931 0.23803509771823883 -0.2698298990726471 -8.04548168182373 5.3231048583984375 -0.39246127009391785 0.059431906789541245 -0.17870812118053436 0.7500991821289062 -3.290147304534912 0.8430725336074829 0.08700645714998245 -0.017492372542619705 -0.26601269841194153 -0.33716756105422974 -10.215405464172363 0.9580265283584595 -0.12803110480308533 -0.06961922347545624 -0.1658499836921692 -0.45895901322364807 -2.272803783416748 -0.7814048528671265 0.181014284491539 0.2627234160900116 0.1036384329199791 -0.49961116909980774 -13.00922966003418 -50.18519592285156 -11.393206596374512 -1.961301326751709 71.49800109863281 1.9667917490005493 -6.393035888671875 -10.84769344329834 -17.316164016723633 0.2618406116962433 0.134566068649292 -0.4312876760959625 13.421409606933594 -52.946434020996094 5.398024559020996 0.30566003918647766 66.53167724609375 -0.9762012362480164 1.7735589742660522 -0.4395480453968048 9.94468879699707
0.12704930268228054 73.01412224769592 0.19045472145080566 178.334228515625 50.97574234008789 172.25608825683594 3.521536350250244 19.624393463134766 2.5819056034088135 -1.1911964416503906 -10.04772663116455 -0.014792011119425297 0.20164400339126587 11.651774406433105 10.497333526611328 -3.3543612957000732 -24.165924072265625 19.795726776123047 -0.20684434473514557 0.9631045460700989 0.5743008255958557 0.1892603188753128 0.11146203428506851 -0.28582921624183655 -0.3197716176509857 -0.43747666478157043 0.09180709719657898 5.846055507659912 51.73577880859375 50.553985595703125 -29.204187393188477 -36.871681213378906 76.98805236816406 -0.5607498288154602 -11.978611946105957 -2.2983603477478027 -0.3878493905067444 0.19835738837718964 -0.37920814752578735 -0.5458837151527405 0.11623392254114151 -0.15073001384735107 0.5910674333572388 -0.11730797588825226 -0.0701565146446228 8.321396827697754 5.311982154846191 -0.5845195651054382 0.008584256283938885 0.24162174761295319 -0.5412865281105042 2.3131110668182373 1.604780912399292 -0.15543490648269653 0.25672024488449097 -0.25244688987731934 -0.26256510615348816 10.460637092590332 1.0648658275604248 -0.12126370519399643 0.4445780813694 0.2339731901884079 0.4054886996746063 2.1742970943450928 -0.8171370029449463 -0.34961792826652527 0.3473653793334961 -0.34116172790527344 0.9409257173538208 11.794124603271484 14.108534812927246 -106.33172607421875 25.406444549560547 -43.82698440551758 -93.14768981933594 0.8272435069084167 -33.230770111083984 3.939643621444702 0.38682684302330017 0.3243425190448761 -0.35435426235198975 0.07524578273296356 -0.26783686876296997 -0.6061845421791077 -0.16505731642246246 0.6427128911018372 -0.34002208709716797 -8.73504638671875 4.80705451965332 -0.8559099435806274 0.38439619541168213 0.07838533073663712 0.21596504747867584 -3.0908572673797607 0.9075815081596375 0.43095892667770386 0.05230448395013809 -0.2103947252035141 0.5210857391357422 -10.183552742004395 1.3702898025512695 -0.31437596678733826 -0.07339577376842499 0.18320102989673615 -0.08293064683675766 -2.493884325027466 -0.8275538086891174 0.44283875823020935 0.5441299080848694 -0.08489514142274857 -0.2394157499074936 -4.090134143829346 -46.63452911376953 2.1886231899261475 -3.483048439025879 64.58428955078125 4.420089244842529 -5.653608798980713 -12.660958290100098 -13.839921951293945 0.006976860109716654 -0.22632785141468048 -0.9030826687812805 9.346209526062012 -53.0521240234375 1.8745037317276 3.04663348197937 67.43219757080078 -3.137979030609131 1.4872729778289795 -0.9625694155693054 4.55940055847168
